g Drawn Mesh
v -10.59501 -5.446386 -0.5
v -14.9435 8.859578 -0.5
v -17.45408 -5.224793 -0.5
v -10.59501 -5.446386 6.5
v -10.59501 -5.446386 -0.5
v -14.9435 8.859578 6.5
v -14.9435 8.859578 -0.5
v -17.45408 -5.224793 6.5
v -17.45408 -5.224793 -0.5
v -10.59501 -5.446386 6.5
v -10.59501 -5.446386 -0.5

vn 0 0 -1
vn 0 0 -1
vn 0 0 -1
vn 0.9567763 0.290825 0
vn 0.9567763 0.290825 0
vn 0.7917668 0.6108235 0
vn -0.8285083 0.5599767 0
vn -0.9979112 -0.06460194 0
vn -0.7917668 -0.6108236 0
vn -0.03228971 -0.9994785 0
vn -0.03228971 -0.9994785 0

vt -1.059501 -0.5446386
vt -1.49435 0.8859578
vt -1.745408 -0.5224794
vt 0 0.65
vt 0 -0.05
vt 1.495226 0.65
vt 1.495226 -0.05
vt 2.925864 0.65
vt 2.925864 -0.05
vt 3.612128 0.65
vt 3.612128 -0.05

usemtl Cardboard Lightning
usemap Cardboard Lightning
f 3/3/3 2/2/2 1/1/1

usemtl Cardboard Lightning
usemap Cardboard Lightning
f 4/4/4 5/5/5 6/6/6
f 7/7/7 6/6/6 5/5/5
f 6/6/6 7/7/7 8/8/8
f 9/9/9 8/8/8 7/7/7
f 8/8/8 9/9/9 10/10/10
f 11/11/11 10/10/10 9/9/9
f 4/4/4 4/4/4 4/4/4
f 4/4/4 4/4/4 4/4/4
