g Drawn Mesh
v -9.346104 -3.546564 0
v -9.599082 -2.464383 0
v -9.711516 -1.115171 0
v -10.3018 -1.24166 0
v -10.11909 -2.492491 0
v -10.27369 -3.855758 0
v -9.346104 -3.546564 5
v -9.346104 -3.546564 0
v -9.599082 -2.464383 5
v -9.599082 -2.464383 0
v -9.711516 -1.115171 5
v -9.711516 -1.115171 0
v -10.3018 -1.24166 5
v -10.3018 -1.24166 0
v -10.11909 -2.492491 5
v -10.11909 -2.492491 0
v -10.27369 -3.855758 5
v -10.27369 -3.855758 0
v -9.346104 -3.546564 5
v -9.346104 -3.546564 0

vn 0 0 -1
vn 0 0 -1
vn 0 0 -1
vn 0 0 -1
vn 0 0 -1
vn 0 0 -1
vn 0.9737476 0.2276302 0
vn 0.9737476 0.2276302 0
vn 0.9848627 0.1733364 0
vn 0.9921067 0.1253967 0
vn 0.9532672 0.3021286 0
vn 0.6466851 0.7627571 0
vn -0.8332465 0.5529016 0
vn -0.9963596 0.08524934 0
vn -0.9985157 -0.05446501 0
vn -0.9994947 0.03178582 0
vn -0.9688028 -0.2478333 0
vn -0.4012159 -0.9159835 0
vn 0.3162276 -0.9486834 0
vn 0.3162276 -0.9486834 0

vt -0.9346104 -0.3546564
vt -0.9599082 -0.2464383
vt -0.9711516 -0.1115171
vt -1.03018 -0.124166
vt -1.011909 -0.2492491
vt -1.027369 -0.3855758
vt 0 0.5
vt 0 0
vt 0.1111357 0.5
vt 0.1111357 0
vt 0.2465245 0.5
vt 0.2465245 0
vt 0.3068926 0.5
vt 0.3068926 0
vt 0.4333031 0.5
vt 0.4333031 0
vt 0.5705035 0.5
vt 0.5705035 0
vt 0.6682794 0.5
vt 0.6682794 0

usemtl Cardboard
usemap Cardboard
f 6/6/6 5/5/5 2/2/2
f 2/2/2 5/5/5 4/4/4
f 2/2/2 4/4/4 3/3/3
f 6/6/6 2/2/2 1/1/1

usemtl Cardboard Snow
usemap Cardboard Snow
f 7/7/7 8/8/8 9/9/9
f 10/10/10 9/9/9 8/8/8
f 9/9/9 10/10/10 11/11/11
f 12/12/12 11/11/11 10/10/10
f 11/11/11 12/12/12 13/13/13
f 14/14/14 13/13/13 12/12/12
f 13/13/13 14/14/14 15/15/15
f 16/16/16 15/15/15 14/14/14
f 15/15/15 16/16/16 17/17/17
f 18/18/18 17/17/17 16/16/16
f 17/17/17 18/18/18 19/19/19
f 20/20/20 19/19/19 18/18/18
f 7/7/7 7/7/7 7/7/7
f 7/7/7 7/7/7 7/7/7
