g Drawn Mesh
v -5.832531 3.83194 -2
v -5.888749 3.775723 -2
v -5.888749 3.691397 -2
v -5.888749 3.607071 -2
v -5.832531 3.522745 -2
v -5.706043 3.410311 -2
v -5.579554 3.354094 -2
v -5.439012 3.340039 -2
v -5.115762 3.311931 -2
v -4.904948 3.325985 -2
v -4.862785 3.340039 -2
v -4.792514 3.382202 -2
v -4.708188 3.43842 -2
v -4.666025 3.494637 -2
v -4.595753 3.550854 -2
v -4.511428 3.593017 -2
v -4.384939 3.663288 -2
v -4.286559 3.705451 -2
v -4.230342 3.761668 -2
v -4.188179 3.888157 -2
v -4.202233 3.986537 -2
v -4.258451 4.070863 -2
v -4.328722 4.113026 -2
v -4.398993 4.155189 -2
v -4.455211 4.183297 -2
v -4.539536 4.183297 -2
v -4.623862 4.183297 -2
v -4.651971 4.183297 -2
v -4.722242 4.197351 -2
v -4.834677 4.267623 -2
v -4.890894 4.295732 -2
v -4.947111 4.337894 -2
v -5.003328 4.380057 -2
v -5.101708 4.408166 -2
v -5.214142 4.408166 -2
v -5.354685 4.408166 -2
v -5.453065 4.394111 -2
v -5.509283 4.380057 -2
v -5.5655 4.351949 -2
v -5.635771 4.337894 -2
v -5.677934 4.309786 -2
v -5.691988 4.309786 -2
v -5.720097 4.239514 -2
v -5.748205 4.211406 -2
v -5.76226 4.183297 -2
v -5.818477 4.169243 -2
v -5.832531 4.155189 -2
v -5.86064 4.12708 -2
v -5.874694 4.113026 -2
v -5.902802 4.084917 -2
v -5.916857 4.070863 -2
v -5.930912 4.014646 -2
v -5.930912 3.986537 -2
v -5.888749 3.972483 -2
v -5.846586 3.972483 -2
v -5.804423 3.972483 -2
v -5.790369 3.972483 -2
v -5.776314 3.972483 -2
v -5.832531 3.83194 3
v -5.832531 3.83194 -2
v -5.888749 3.775723 3
v -5.888749 3.775723 -2
v -5.888749 3.691397 3
v -5.888749 3.691397 -2
v -5.888749 3.607071 3
v -5.888749 3.607071 -2
v -5.832531 3.522745 3
v -5.832531 3.522745 -2
v -5.706043 3.410311 3
v -5.706043 3.410311 -2
v -5.579554 3.354094 3
v -5.579554 3.354094 -2
v -5.439012 3.340039 3
v -5.439012 3.340039 -2
v -5.115762 3.311931 3
v -5.115762 3.311931 -2
v -4.904948 3.325985 3
v -4.904948 3.325985 -2
v -4.862785 3.340039 3
v -4.862785 3.340039 -2
v -4.792514 3.382202 3
v -4.792514 3.382202 -2
v -4.708188 3.43842 3
v -4.708188 3.43842 -2
v -4.666025 3.494637 3
v -4.666025 3.494637 -2
v -4.595753 3.550854 3
v -4.595753 3.550854 -2
v -4.511428 3.593017 3
v -4.511428 3.593017 -2
v -4.384939 3.663288 3
v -4.384939 3.663288 -2
v -4.286559 3.705451 3
v -4.286559 3.705451 -2
v -4.230342 3.761668 3
v -4.230342 3.761668 -2
v -4.188179 3.888157 3
v -4.188179 3.888157 -2
v -4.202233 3.986537 3
v -4.202233 3.986537 -2
v -4.258451 4.070863 3
v -4.258451 4.070863 -2
v -4.328722 4.113026 3
v -4.328722 4.113026 -2
v -4.398993 4.155189 3
v -4.398993 4.155189 -2
v -4.455211 4.183297 3
v -4.455211 4.183297 -2
v -4.539536 4.183297 3
v -4.539536 4.183297 -2
v -4.623862 4.183297 3
v -4.623862 4.183297 -2
v -4.651971 4.183297 3
v -4.651971 4.183297 -2
v -4.722242 4.197351 3
v -4.722242 4.197351 -2
v -4.834677 4.267623 3
v -4.834677 4.267623 -2
v -4.890894 4.295732 3
v -4.890894 4.295732 -2
v -4.947111 4.337894 3
v -4.947111 4.337894 -2
v -5.003328 4.380057 3
v -5.003328 4.380057 -2
v -5.101708 4.408166 3
v -5.101708 4.408166 -2
v -5.214142 4.408166 3
v -5.214142 4.408166 -2
v -5.354685 4.408166 3
v -5.354685 4.408166 -2
v -5.453065 4.394111 3
v -5.453065 4.394111 -2
v -5.509283 4.380057 3
v -5.509283 4.380057 -2
v -5.5655 4.351949 3
v -5.5655 4.351949 -2
v -5.635771 4.337894 3
v -5.635771 4.337894 -2
v -5.677934 4.309786 3
v -5.677934 4.309786 -2
v -5.691988 4.309786 3
v -5.691988 4.309786 -2
v -5.720097 4.239514 3
v -5.720097 4.239514 -2
v -5.748205 4.211406 3
v -5.748205 4.211406 -2
v -5.76226 4.183297 3
v -5.76226 4.183297 -2
v -5.818477 4.169243 3
v -5.818477 4.169243 -2
v -5.832531 4.155189 3
v -5.832531 4.155189 -2
v -5.86064 4.12708 3
v -5.86064 4.12708 -2
v -5.874694 4.113026 3
v -5.874694 4.113026 -2
v -5.902802 4.084917 3
v -5.902802 4.084917 -2
v -5.916857 4.070863 3
v -5.916857 4.070863 -2
v -5.930912 4.014646 3
v -5.930912 4.014646 -2
v -5.930912 3.986537 3
v -5.930912 3.986537 -2
v -5.888749 3.972483 3
v -5.888749 3.972483 -2
v -5.846586 3.972483 3
v -5.846586 3.972483 -2
v -5.804423 3.972483 3
v -5.804423 3.972483 -2
v -5.790369 3.972483 3
v -5.790369 3.972483 -2
v -5.776314 3.972483 3
v -5.776314 3.972483 -2
v -5.832531 3.83194 3
v -5.832531 3.83194 -2

vn 0 0 -0.9999999
vn 0 0 -1
vn 0 0 -1
vn 0 0 -1
vn 0 0 -0.9999999
vn 0 0 -1
vn 0 0 -1
vn 0 0 -1
vn 0 0 -1
vn 0 0 -1
vn 0 0 -1
vn 0 0 -1
vn 0 0 -1
vn 0 0 -1
vn 0 0 -1
vn 0 0 -1
vn 0 0 -1
vn 0 0 -1
vn 0 0 -0.9999999
vn 0 0 -0.9999999
vn 0 0 -1
vn 0 0 -1
vn 0 0 -1
vn 0 0 -1
vn 0 0 -1
vn 0 0 -1
vn 0 0 -1
vn 0 0 -1
vn 0 0 -1
vn 0 0 -1
vn 0 0 -1
vn 0 0 -1
vn 0 0 -1
vn 0 0 -1
vn 0 0 -1
vn 0 0 -1
vn 0 0 -1
vn 0 0 -1
vn 0 0 -1
vn 0 0 -1
vn 0 0 -1
vn 0 0 -1
vn 0 0 -1
vn 0 0 -0.9999999
vn 0 0 -1
vn 0 0 -1
vn 0 0 -0.9999999
vn 0 0 -0.9999999
vn 0 0 -1
vn 0 0 -1
vn 0 0 -1
vn 0 0 -1
vn 0 0 -1
vn 0 0 -1
vn 0 0 -1
vn 0 0 -1
vn 0 0 -1
vn 0 0 -1
vn -0.7071052 0.7071082 0
vn -0.7071052 0.7071082 0
vn -0.8682429 0.4961394 0
vn -0.9701425 0.2425354 0
vn -1 0 0
vn -1 0 0
vn -0.9761869 -0.2169308 0
vn -0.9138114 -0.4061388 0
vn -0.7619393 -0.6476485 0
vn -0.7071068 -0.7071068 0
vn -0.5952275 -0.8035572 0
vn -0.5098024 -0.8602915 0
vn -0.3060095 -0.9520285 0
vn -0.2026061 -0.9792604 0
vn -0.09262344 -0.9957013 0
vn -0.08893189 -0.9960377 0
vn -0.04912091 -0.9987929 0
vn 0 -1 0
vn 0.09053584 -0.9958932 0
vn 0.1414218 -0.9899493 0
vn 0.413805 -0.9103655 0
vn 0.4741008 -0.8804706 0
vn 0.529999 -0.8479983 0
vn 0.5432513 -0.8395702 0
vn 0.624695 -0.7808688 0
vn 0.7071068 -0.7071068 0
vn 0.7371531 -0.6757258 0
vn 0.6782782 -0.7348052 0
vn 0.5665274 -0.8240429 0
vn 0.5070196 -0.8619345 0
vn 0.464007 -0.8858315 0
vn 0.4762831 -0.8792919 0
vn 0.4613532 -0.8872165 0
vn 0.4314566 -0.9021337 0
vn 0.4856443 -0.8741566 0
vn 0.5913648 -0.8064041 0
vn 0.8395704 -0.5432509 0
vn 0.9103658 -0.4138044 0
vn 0.9805802 -0.1961187 0
vn 0.9990561 -0.0434387 0
vn 0.9578263 0.2873479 0
vn 0.9037378 0.4280863 0
vn 0.755689 0.6549305 0
vn 0.6507914 0.7592567 0
vn 0.5144957 0.8574929 0
vn 0.5144957 0.8574929 0
vn 0.496139 0.8682432 0
vn 0.4740998 0.8804711 0
vn 0.2747211 0.961524 0
vn 0.1240347 0.9922779 0
vn 0 1 0
vn 0 1 0
vn 0 1 0
vn 0 1 0
vn 0.1104315 0.9938837 0
vn 0.164399 0.986394 0
vn 0.3624463 0.9320047 0
vn 0.464007 0.8858315 0
vn 0.5144957 0.8574929 0
vn 0.4902613 0.8715756 0
vn 0.5038721 0.8637783 0
vn 0.5547024 0.8320489 0
vn 0.6000022 0.7999984 0
vn 0.6000011 0.7999992 0
vn 0.4705882 0.8823529 0
vn 0.3624463 0.9320047 0
vn 0.1788854 0.9838699 0
vn 0.08662961 0.9962406 0
vn 0 1 0
vn 0 1 0
vn -0.03701292 0.9993148 0
vn -0.08304828 0.9965455 0
vn -0.1644008 0.9863936 0
vn -0.196114 0.9805811 0
vn -0.3162229 0.9486849 0
vn -0.3846132 0.9230778 0
vn -0.3589791 0.9333456 0
vn -0.2747211 0.961524 0
vn -0.2940859 0.955779 0
vn -0.413803 0.9103665 0
vn -0.496139 0.8682432 0
vn -0.3713906 0.9284766 0
vn -0.7808688 0.624695 0
vn -0.8944272 0.4472136 0
vn -0.8944283 0.4472116 0
vn -0.8320531 0.5546958 0
vn -0.7682235 0.6401818 0
vn -0.8320481 0.5547034 0
vn -0.6401802 0.7682249 0
vn -0.4061372 0.9138121 0
vn -0.3162277 0.9486833 0
vn -0.4472136 0.8944272 0
vn -0.7071068 0.7071068 0
vn -0.7071068 0.7071068 0
vn -0.7071068 0.7071068 0
vn -0.7071068 0.7071068 0
vn -0.7071097 0.7071038 0
vn -0.7071116 0.707102 0
vn -0.7071092 0.7071044 0
vn -0.7071037 0.7071097 0
vn -0.8944231 0.4472217 0
vn -0.9486822 0.316231 0
vn -0.9805807 0.1961161 0
vn -0.9922779 0.1240347 0
vn -0.8574929 -0.5144957 0
vn -0.5547003 -0.8320504 0
vn -0.2169305 -0.9761871 0
vn -0.1104315 -0.9938837 0
vn 0 -1 0
vn 0 -1 0
vn 0 -1 0
vn 0 -1 0
vn 0 -1 0
vn 0 -1 0
vn -0.9805807 0.1961161 0
vn -0.9438583 0.3303504 0
vn -0.9284766 0.3713906 0
vn -0.9284766 0.3713906 0

vt -0.5832531 0.383194
vt -0.5888749 0.3775723
vt -0.5888749 0.3691397
vt -0.5888749 0.3607071
vt -0.5832531 0.3522745
vt -0.5706043 0.3410311
vt -0.5579554 0.3354094
vt -0.5439011 0.334004
vt -0.5115762 0.3311931
vt -0.4904948 0.3325985
vt -0.4862785 0.334004
vt -0.4792514 0.3382202
vt -0.4708188 0.343842
vt -0.4666025 0.3494637
vt -0.4595753 0.3550854
vt -0.4511428 0.3593017
vt -0.4384939 0.3663288
vt -0.4286559 0.3705451
vt -0.4230343 0.3761668
vt -0.4188179 0.3888157
vt -0.4202233 0.3986537
vt -0.4258451 0.4070863
vt -0.4328722 0.4113026
vt -0.4398994 0.4155189
vt -0.4455211 0.4183297
vt -0.4539537 0.4183297
vt -0.4623862 0.4183297
vt -0.4651971 0.4183297
vt -0.4722242 0.4197352
vt -0.4834677 0.4267623
vt -0.4890894 0.4295731
vt -0.4947111 0.4337895
vt -0.5003328 0.4380057
vt -0.5101708 0.4408166
vt -0.5214142 0.4408166
vt -0.5354685 0.4408166
vt -0.5453066 0.4394111
vt -0.5509283 0.4380057
vt -0.55655 0.4351949
vt -0.5635771 0.4337895
vt -0.5677934 0.4309786
vt -0.5691988 0.4309786
vt -0.5720097 0.4239514
vt -0.5748205 0.4211406
vt -0.576226 0.4183297
vt -0.5818477 0.4169243
vt -0.5832531 0.4155189
vt -0.586064 0.412708
vt -0.5874695 0.4113026
vt -0.5902802 0.4084917
vt -0.5916857 0.4070863
vt -0.5930912 0.4014646
vt -0.5930912 0.3986537
vt -0.5888749 0.3972483
vt -0.5846586 0.3972483
vt -0.5804423 0.3972483
vt -0.5790369 0.3972483
vt -0.5776314 0.3972483
vt 0 0.3
vt 0 -0.2
vt 0.007950295 0.3
vt 0.007950295 -0.2
vt 0.0163829 0.3
vt 0.0163829 -0.2
vt 0.02481545 0.3
vt 0.02481545 -0.2
vt 0.03495015 0.3
vt 0.03495015 -0.2
vt 0.05187377 0.3
vt 0.05187377 -0.2
vt 0.06571565 0.3
vt 0.06571565 -0.2
vt 0.07984 0.3
vt 0.07984 -0.2
vt 0.1122869 0.3
vt 0.1122869 -0.2
vt 0.1334151 0.3
vt 0.1334151 -0.2
vt 0.1378595 0.3
vt 0.1378595 -0.2
vt 0.1460545 0.3
vt 0.1460545 -0.2
vt 0.1561892 0.3
vt 0.1561892 -0.2
vt 0.1632163 0.3
vt 0.1632163 -0.2
vt 0.1722155 0.3
vt 0.1722155 -0.2
vt 0.1816434 0.3
vt 0.1816434 -0.2
vt 0.1961131 0.3
vt 0.1961131 -0.2
vt 0.2068166 0.3
vt 0.2068166 -0.2
vt 0.2147668 0.3
vt 0.2147668 -0.2
vt 0.2280999 0.3
vt 0.2280999 -0.2
vt 0.2380378 0.3
vt 0.2380378 -0.2
vt 0.2481725 0.3
vt 0.2481725 -0.2
vt 0.2563675 0.3
vt 0.2563675 -0.2
vt 0.2645625 0.3
vt 0.2645625 -0.2
vt 0.2708478 0.3
vt 0.2708478 -0.2
vt 0.2792803 0.3
vt 0.2792803 -0.2
vt 0.2877129 0.3
vt 0.2877129 -0.2
vt 0.2905238 0.3
vt 0.2905238 -0.2
vt 0.2976901 0.3
vt 0.2976901 -0.2
vt 0.3109489 0.3
vt 0.3109489 -0.2
vt 0.3172341 0.3
vt 0.3172341 -0.2
vt 0.3242612 0.3
vt 0.3242612 -0.2
vt 0.3312884 0.3
vt 0.3312884 -0.2
vt 0.3415201 0.3
vt 0.3415201 -0.2
vt 0.3527635 0.3
vt 0.3527635 -0.2
vt 0.3668178 0.3
vt 0.3668178 -0.2
vt 0.3767557 0.3
vt 0.3767557 -0.2
vt 0.3825504 0.3
vt 0.3825504 -0.2
vt 0.3888357 0.3
vt 0.3888357 -0.2
vt 0.396002 0.3
vt 0.396002 -0.2
vt 0.4010694 0.3
vt 0.4010694 -0.2
vt 0.4024748 0.3
vt 0.4024748 -0.2
vt 0.4100432 0.3
vt 0.4100432 -0.2
vt 0.4140184 0.3
vt 0.4140184 -0.2
vt 0.417161 0.3
vt 0.417161 -0.2
vt 0.4229557 0.3
vt 0.4229557 -0.2
vt 0.4249433 0.3
vt 0.4249433 -0.2
vt 0.4289185 0.3
vt 0.4289185 -0.2
vt 0.4309061 0.3
vt 0.4309061 -0.2
vt 0.4348812 0.3
vt 0.4348812 -0.2
vt 0.4368688 0.3
vt 0.4368688 -0.2
vt 0.4426635 0.3
vt 0.4426635 -0.2
vt 0.4454744 0.3
vt 0.4454744 -0.2
vt 0.4499187 0.3
vt 0.4499187 -0.2
vt 0.454135 0.3
vt 0.454135 -0.2
vt 0.4583513 0.3
vt 0.4583513 -0.2
vt 0.4597567 0.3
vt 0.4597567 -0.2
vt 0.4611621 0.3
vt 0.4611621 -0.2
vt 0.4762991 0.3
vt 0.4762991 -0.2

usemtl Cardboard
usemap Cardboard
f 56/56/56 55/55/55 52/52/52
f 52/52/52 55/55/55 54/54/54
f 52/52/52 54/54/54 53/53/53
f 51/51/51 50/50/50 52/52/52
f 52/52/52 50/50/50 48/48/48
f 52/52/52 48/48/48 45/45/45
f 45/45/45 48/48/48 47/47/47
f 45/45/45 47/47/47 46/46/46
f 48/48/48 50/50/50 49/49/49
f 58/58/58 57/57/57 28/28/28
f 28/28/28 57/57/57 56/56/56
f 28/28/28 56/56/56 43/43/43
f 43/43/43 56/56/56 45/45/45
f 43/43/43 45/45/45 44/44/44
f 42/42/42 41/41/41 43/43/43
f 43/43/43 41/41/41 39/39/39
f 43/43/43 39/39/39 35/35/35
f 35/35/35 39/39/39 37/37/37
f 35/35/35 37/37/37 36/36/36
f 39/39/39 41/41/41 40/40/40
f 37/37/37 39/39/39 38/38/38
f 30/30/30 29/29/29 31/31/31
f 31/31/31 29/29/29 35/35/35
f 31/31/31 35/35/35 33/33/33
f 33/33/33 35/35/35 34/34/34
f 31/31/31 33/33/33 32/32/32
f 27/27/27 26/26/26 23/23/23
f 23/23/23 26/26/26 25/25/25
f 23/23/23 25/25/25 24/24/24
f 22/22/22 21/21/21 23/23/23
f 23/23/23 21/21/21 19/19/19
f 23/23/23 19/19/19 15/15/15
f 15/15/15 19/19/19 17/17/17
f 15/15/15 17/17/17 16/16/16
f 19/19/19 21/21/21 20/20/20
f 17/17/17 19/19/19 18/18/18
f 12/12/12 11/11/11 13/13/13
f 13/13/13 11/11/11 9/9/9
f 13/13/13 9/9/9 5/5/5
f 5/5/5 9/9/9 7/7/7
f 5/5/5 7/7/7 6/6/6
f 9/9/9 11/11/11 10/10/10
f 7/7/7 9/9/9 8/8/8
f 2/2/2 1/1/1 3/3/3
f 3/3/3 1/1/1 5/5/5
f 3/3/3 5/5/5 4/4/4
f 28/28/28 43/43/43 29/29/29
f 29/29/29 43/43/43 35/35/35
f 27/27/27 23/23/23 28/28/28
f 28/28/28 23/23/23 14/14/14
f 28/28/28 14/14/14 58/58/58
f 58/58/58 14/14/14 13/13/13
f 58/58/58 13/13/13 5/5/5
f 14/14/14 23/23/23 15/15/15
f 58/58/58 5/5/5 1/1/1
f 45/45/45 56/56/56 52/52/52

usemtl Cardboard
usemap Cardboard
f 59/59/59 60/60/60 61/61/61
f 62/62/62 61/61/61 60/60/60
f 61/61/61 62/62/62 63/63/63
f 64/64/64 63/63/63 62/62/62
f 63/63/63 64/64/64 65/65/65
f 66/66/66 65/65/65 64/64/64
f 65/65/65 66/66/66 67/67/67
f 68/68/68 67/67/67 66/66/66
f 67/67/67 68/68/68 69/69/69
f 70/70/70 69/69/69 68/68/68
f 69/69/69 70/70/70 71/71/71
f 72/72/72 71/71/71 70/70/70
f 71/71/71 72/72/72 73/73/73
f 74/74/74 73/73/73 72/72/72
f 73/73/73 74/74/74 75/75/75
f 76/76/76 75/75/75 74/74/74
f 75/75/75 76/76/76 77/77/77
f 78/78/78 77/77/77 76/76/76
f 77/77/77 78/78/78 79/79/79
f 80/80/80 79/79/79 78/78/78
f 79/79/79 80/80/80 81/81/81
f 82/82/82 81/81/81 80/80/80
f 81/81/81 82/82/82 83/83/83
f 84/84/84 83/83/83 82/82/82
f 83/83/83 84/84/84 85/85/85
f 86/86/86 85/85/85 84/84/84
f 85/85/85 86/86/86 87/87/87
f 88/88/88 87/87/87 86/86/86
f 87/87/87 88/88/88 89/89/89
f 90/90/90 89/89/89 88/88/88
f 89/89/89 90/90/90 91/91/91
f 92/92/92 91/91/91 90/90/90
f 91/91/91 92/92/92 93/93/93
f 94/94/94 93/93/93 92/92/92
f 93/93/93 94/94/94 95/95/95
f 96/96/96 95/95/95 94/94/94
f 95/95/95 96/96/96 97/97/97
f 98/98/98 97/97/97 96/96/96
f 97/97/97 98/98/98 99/99/99
f 100/100/100 99/99/99 98/98/98
f 99/99/99 100/100/100 101/101/101
f 102/102/102 101/101/101 100/100/100
f 101/101/101 102/102/102 103/103/103
f 104/104/104 103/103/103 102/102/102
f 103/103/103 104/104/104 105/105/105
f 106/106/106 105/105/105 104/104/104
f 105/105/105 106/106/106 107/107/107
f 108/108/108 107/107/107 106/106/106
f 107/107/107 108/108/108 109/109/109
f 110/110/110 109/109/109 108/108/108
f 109/109/109 110/110/110 111/111/111
f 112/112/112 111/111/111 110/110/110
f 111/111/111 112/112/112 113/113/113
f 114/114/114 113/113/113 112/112/112
f 113/113/113 114/114/114 115/115/115
f 116/116/116 115/115/115 114/114/114
f 115/115/115 116/116/116 117/117/117
f 118/118/118 117/117/117 116/116/116
f 117/117/117 118/118/118 119/119/119
f 120/120/120 119/119/119 118/118/118
f 119/119/119 120/120/120 121/121/121
f 122/122/122 121/121/121 120/120/120
f 121/121/121 122/122/122 123/123/123
f 124/124/124 123/123/123 122/122/122
f 123/123/123 124/124/124 125/125/125
f 126/126/126 125/125/125 124/124/124
f 125/125/125 126/126/126 127/127/127
f 128/128/128 127/127/127 126/126/126
f 127/127/127 128/128/128 129/129/129
f 130/130/130 129/129/129 128/128/128
f 129/129/129 130/130/130 131/131/131
f 132/132/132 131/131/131 130/130/130
f 131/131/131 132/132/132 133/133/133
f 134/134/134 133/133/133 132/132/132
f 133/133/133 134/134/134 135/135/135
f 136/136/136 135/135/135 134/134/134
f 135/135/135 136/136/136 137/137/137
f 138/138/138 137/137/137 136/136/136
f 137/137/137 138/138/138 139/139/139
f 140/140/140 139/139/139 138/138/138
f 139/139/139 140/140/140 141/141/141
f 142/142/142 141/141/141 140/140/140
f 141/141/141 142/142/142 143/143/143
f 144/144/144 143/143/143 142/142/142
f 143/143/143 144/144/144 145/145/145
f 146/146/146 145/145/145 144/144/144
f 145/145/145 146/146/146 147/147/147
f 148/148/148 147/147/147 146/146/146
f 147/147/147 148/148/148 149/149/149
f 150/150/150 149/149/149 148/148/148
f 149/149/149 150/150/150 151/151/151
f 152/152/152 151/151/151 150/150/150
f 151/151/151 152/152/152 153/153/153
f 154/154/154 153/153/153 152/152/152
f 153/153/153 154/154/154 155/155/155
f 156/156/156 155/155/155 154/154/154
f 155/155/155 156/156/156 157/157/157
f 158/158/158 157/157/157 156/156/156
f 157/157/157 158/158/158 159/159/159
f 160/160/160 159/159/159 158/158/158
f 159/159/159 160/160/160 161/161/161
f 162/162/162 161/161/161 160/160/160
f 161/161/161 162/162/162 163/163/163
f 164/164/164 163/163/163 162/162/162
f 163/163/163 164/164/164 165/165/165
f 166/166/166 165/165/165 164/164/164
f 165/165/165 166/166/166 167/167/167
f 168/168/168 167/167/167 166/166/166
f 167/167/167 168/168/168 169/169/169
f 170/170/170 169/169/169 168/168/168
f 169/169/169 170/170/170 171/171/171
f 172/172/172 171/171/171 170/170/170
f 171/171/171 172/172/172 173/173/173
f 174/174/174 173/173/173 172/172/172
f 173/173/173 174/174/174 175/175/175
f 176/176/176 175/175/175 174/174/174
f 59/59/59 59/59/59 59/59/59
f 59/59/59 59/59/59 59/59/59
