g Drawn Mesh
v -12.05858 6.249278 -2
v -12.14291 6.207115 -2
v -12.36778 6.052518 -2
v -12.40994 5.996301 -2
v -12.43805 5.827649 -2
v -12.36778 5.70116 -2
v -12.2694 5.644944 -2
v -11.87588 5.504401 -2
v -11.27154 5.293586 -2
v -10.93424 5.251423 -2
v -10.86397 5.251423 -2
v -10.61099 5.251423 -2
v -10.20342 5.251423 -2
v -9.852058 5.293586 -2
v -9.641245 5.349803 -2
v -9.472593 5.462238 -2
v -9.360159 5.602781 -2
v -9.317996 5.70116 -2
v -9.289887 5.855758 -2
v -9.303942 5.940084 -2
v -9.303942 6.010355 -2
v -9.317996 6.066572 -2
v -9.289887 6.122789 -2
v -9.247725 6.207115 -2
v -9.205562 6.291441 -2
v -9.205562 6.361712 -2
v -9.247725 6.431983 -2
v -9.303942 6.474146 -2
v -9.374213 6.502255 -2
v -9.500701 6.502255 -2
v -9.585028 6.488201 -2
v -9.669353 6.474146 -2
v -9.795842 6.460093 -2
v -9.950439 6.446038 -2
v -10.06287 6.41793 -2
v -10.1472 6.403875 -2
v -10.27369 6.375766 -2
v -10.44234 6.375766 -2
v -10.59694 6.431983 -2
v -10.69532 6.530364 -2
v -10.76559 6.614689 -2
v -10.83586 6.699016 -2
v -11.131 6.783341 -2
v -11.29965 6.797396 -2
v -11.36992 6.797396 -2
v -11.41209 6.797396 -2
v -11.4683 6.741179 -2
v -11.49641 6.699016 -2
v -11.51047 6.628744 -2
v -12.05858 6.249278 3
v -12.05858 6.249278 -2
v -12.14291 6.207115 3
v -12.14291 6.207115 -2
v -12.36778 6.052518 3
v -12.36778 6.052518 -2
v -12.40994 5.996301 3
v -12.40994 5.996301 -2
v -12.43805 5.827649 3
v -12.43805 5.827649 -2
v -12.36778 5.70116 3
v -12.36778 5.70116 -2
v -12.2694 5.644944 3
v -12.2694 5.644944 -2
v -11.87588 5.504401 3
v -11.87588 5.504401 -2
v -11.27154 5.293586 3
v -11.27154 5.293586 -2
v -10.93424 5.251423 3
v -10.93424 5.251423 -2
v -10.86397 5.251423 3
v -10.86397 5.251423 -2
v -10.61099 5.251423 3
v -10.61099 5.251423 -2
v -10.20342 5.251423 3
v -10.20342 5.251423 -2
v -9.852058 5.293586 3
v -9.852058 5.293586 -2
v -9.641245 5.349803 3
v -9.641245 5.349803 -2
v -9.472593 5.462238 3
v -9.472593 5.462238 -2
v -9.360159 5.602781 3
v -9.360159 5.602781 -2
v -9.317996 5.70116 3
v -9.317996 5.70116 -2
v -9.289887 5.855758 3
v -9.289887 5.855758 -2
v -9.303942 5.940084 3
v -9.303942 5.940084 -2
v -9.303942 6.010355 3
v -9.303942 6.010355 -2
v -9.317996 6.066572 3
v -9.317996 6.066572 -2
v -9.289887 6.122789 3
v -9.289887 6.122789 -2
v -9.247725 6.207115 3
v -9.247725 6.207115 -2
v -9.205562 6.291441 3
v -9.205562 6.291441 -2
v -9.205562 6.361712 3
v -9.205562 6.361712 -2
v -9.247725 6.431983 3
v -9.247725 6.431983 -2
v -9.303942 6.474146 3
v -9.303942 6.474146 -2
v -9.374213 6.502255 3
v -9.374213 6.502255 -2
v -9.500701 6.502255 3
v -9.500701 6.502255 -2
v -9.585028 6.488201 3
v -9.585028 6.488201 -2
v -9.669353 6.474146 3
v -9.669353 6.474146 -2
v -9.795842 6.460093 3
v -9.795842 6.460093 -2
v -9.950439 6.446038 3
v -9.950439 6.446038 -2
v -10.06287 6.41793 3
v -10.06287 6.41793 -2
v -10.1472 6.403875 3
v -10.1472 6.403875 -2
v -10.27369 6.375766 3
v -10.27369 6.375766 -2
v -10.44234 6.375766 3
v -10.44234 6.375766 -2
v -10.59694 6.431983 3
v -10.59694 6.431983 -2
v -10.69532 6.530364 3
v -10.69532 6.530364 -2
v -10.76559 6.614689 3
v -10.76559 6.614689 -2
v -10.83586 6.699016 3
v -10.83586 6.699016 -2
v -11.131 6.783341 3
v -11.131 6.783341 -2
v -11.29965 6.797396 3
v -11.29965 6.797396 -2
v -11.36992 6.797396 3
v -11.36992 6.797396 -2
v -11.41209 6.797396 3
v -11.41209 6.797396 -2
v -11.4683 6.741179 3
v -11.4683 6.741179 -2
v -11.49641 6.699016 3
v -11.49641 6.699016 -2
v -11.51047 6.628744 3
v -11.51047 6.628744 -2
v -12.05858 6.249278 3
v -12.05858 6.249278 -2

vn 0 0 -1
vn 0 0 -1
vn 0 0 -1
vn 0 0 -1
vn 0 0 -1
vn 0 0 -1
vn 0 0 -1
vn 0 0 -1
vn 0 0 -1
vn 0 0 -1
vn 0 0 -1
vn 0 0 -1
vn 0 0 -1
vn 0 0 -1
vn 0 0 -0.9999999
vn 0 0 -1
vn 0 0 -1
vn 0 0 -1
vn 0 0 -1
vn 0 0 -1
vn 0 0 -1
vn 0 0 -1
vn 0 0 -0.9999999
vn 0 0 -1
vn 0 0 -1
vn 0 0 -1
vn 0 0 -1
vn 0 0 -1
vn 0 0 -1
vn 0 0 -1
vn 0 0 -1
vn 0 0 -1
vn 0 0 -1
vn 0 0 -1
vn 0 0 -1
vn 0 0 -1
vn 0 0 -1
vn 0 0 -1
vn 0 0 -1
vn 0 0 -1
vn 0 0 -1
vn 0 0 -1
vn 0 0 -1
vn 0 0 -1
vn 0 0 -1
vn 0 0 -1
vn 0 0 -0.9999999
vn 0 0 -0.9999999
vn 0 0 -1
vn -0.4472136 0.8944272 0
vn -0.4472136 0.8944272 0
vn -0.5189781 0.8547875 0
vn -0.5496165 0.8354171 0
vn -0.596324 0.8027439 0
vn -0.6536198 0.7568229 0
vn -0.9284766 0.3713906 0
vn -0.9701425 0.2425356 0
vn -0.9995412 -0.03028913 0
vn -0.966235 -0.2576627 0
vn -0.7912833 -0.6114496 0
vn -0.6667908 -0.745245 0
vn -0.3939175 -0.9191458 0
vn -0.3559952 -0.9344878 0
vn -0.3333186 -0.9428142 0
vn -0.3310879 -0.9435999 0
vn -0.2873479 -0.9578263 0
vn -0.2248595 -0.9743912 0
vn -0.112489 -0.9936529 0
vn -0.08789381 -0.9961298 0
vn 0 -1 0
vn 0 -1 0
vn 0 -1 0
vn 0 -1 0
vn 0.03612093 -0.9993475 0
vn 0.0757312 -0.9971282 0
vn 0.1520573 -0.9883717 0
vn 0.1961166 -0.9805806 0
vn 0.3559963 -0.9344874 0
vn 0.4563173 -0.8898171 0
vn 0.6305926 -0.776114 0
vn 0.7071068 -0.7071068 0
vn 0.8178061 -0.5754939 0
vn 0.8637783 -0.5038721 0
vn 0.9524239 -0.3047765 0
vn 0.9720821 -0.2346408 0
vn 0.9943091 -0.1065331 0
vn 1 0 0
vn 0.9931507 0.1168412 0
vn 0.9980526 0.06237829 0
vn 0.9974588 0.07124706 0
vn 0.9883716 0.1520572 0
vn 1 0 0
vn 0.9701425 -0.2425356 0
vn 0.8944272 -0.4472136 0
vn 0.8944272 -0.4472136 0
vn 0.8944272 -0.4472136 0
vn 0.8944272 -0.4472136 0
vn 0.9429903 -0.3328201 0
vn 0.9828722 -0.1842885 0
vn 0.9805806 0.1961166 0
vn 0.9284761 0.3713921 0
vn 0.7926224 0.6097128 0
vn 0.7071056 0.7071078 0
vn 0.5240991 0.8516573 0
vn 0.4472171 0.8944255 0
vn 0.2060145 0.9785489 0
vn 0.08663159 0.9962405 0
vn -0.04163066 0.9991331 0
vn -0.09480879 0.9954955 0
vn -0.1643996 0.9863938 0
vn -0.164402 0.9863934 0
vn -0.1414229 0.9899492 0
vn -0.1240334 0.992278 0
vn -0.1028968 0.994692 0
vn -0.09632312 0.9953501 0
vn -0.1321637 0.9912279 0
vn -0.1820893 0.983282 0
vn -0.2216211 0.9751329 0
vn -0.1961161 0.9805807 0
vn -0.1871142 0.9823382 0
vn -0.203958 0.9789796 0
vn -0.1321665 0.9912275 0
vn -0.06049621 0.9981684 0
vn 0.1135466 0.9935327 0
vn 0.2290393 0.9734171 0
vn 0.4594229 0.8882176 0
vn 0.5843047 0.8115344 0
vn 0.7249994 0.6887495 0
vn 0.7452413 0.6667948 0
vn 0.7682219 0.6401837 0
vn 0.7682224 0.6401829 0
vn 0.5021362 0.8647886 0
vn 0.3576467 0.933857 0
vn 0.2340533 0.9722238 0
vn 0.175034 0.9845623 0
vn 0.06880441 0.9976302 0
vn 0.0454092 0.9989685 0
vn 0 1 0
vn 0 1 0
vn -0.3713906 0.9284766 0
vn -0.5881717 0.8087361 0
vn -0.7399424 0.6726703 0
vn -0.780874 0.6246886 0
vn -0.9103691 0.4137973 0
vn -0.955778 0.294089 0
vn -0.6699636 0.7423939 0
vn -0.5983755 0.8012158 0
vn -0.5692095 0.8221925 0
vn -0.5692095 0.8221925 0

vt -1.205858 0.6249278
vt -1.214291 0.6207115
vt -1.236778 0.6052518
vt -1.240994 0.5996301
vt -1.243805 0.5827649
vt -1.236778 0.570116
vt -1.22694 0.5644944
vt -1.187588 0.5504401
vt -1.127154 0.5293586
vt -1.093424 0.5251424
vt -1.086397 0.5251424
vt -1.061099 0.5251424
vt -1.020342 0.5251424
vt -0.9852058 0.5293586
vt -0.9641245 0.5349804
vt -0.9472594 0.5462238
vt -0.9360159 0.5602781
vt -0.9317996 0.570116
vt -0.9289888 0.5855758
vt -0.9303942 0.5940084
vt -0.9303942 0.6010355
vt -0.9317996 0.6066572
vt -0.9289888 0.6122789
vt -0.9247724 0.6207115
vt -0.9205562 0.6291441
vt -0.9205562 0.6361713
vt -0.9247724 0.6431984
vt -0.9303942 0.6474146
vt -0.9374213 0.6502256
vt -0.9500701 0.6502256
vt -0.9585028 0.6488201
vt -0.9669353 0.6474146
vt -0.9795842 0.6460093
vt -0.9950439 0.6446038
vt -1.006287 0.641793
vt -1.01472 0.6403875
vt -1.027369 0.6375766
vt -1.044234 0.6375766
vt -1.059694 0.6431984
vt -1.069532 0.6530364
vt -1.076559 0.6614689
vt -1.083586 0.6699015
vt -1.1131 0.6783341
vt -1.129965 0.6797396
vt -1.136992 0.6797396
vt -1.141209 0.6797396
vt -1.14683 0.6741179
vt -1.149641 0.6699015
vt -1.151047 0.6628744
vt 0 0.3
vt 0 -0.2
vt 0.00942791 0.3
vt 0.00942791 -0.2
vt 0.03671642 0.3
vt 0.03671642 -0.2
vt 0.04374357 0.3
vt 0.04374357 -0.2
vt 0.06084136 0.3
vt 0.06084136 -0.2
vt 0.07531115 0.3
vt 0.07531115 -0.2
vt 0.08664214 0.3
vt 0.08664214 -0.2
vt 0.1284285 0.3
vt 0.1284285 -0.2
vt 0.1924334 0.3
vt 0.1924334 -0.2
vt 0.2264262 0.3
vt 0.2264262 -0.2
vt 0.2334534 0.3
vt 0.2334534 -0.2
vt 0.258751 0.3
vt 0.258751 -0.2
vt 0.2995086 0.3
vt 0.2995086 -0.2
vt 0.3348964 0.3
vt 0.3348964 -0.2
vt 0.3567145 0.3
vt 0.3567145 -0.2
vt 0.3769839 0.3
vt 0.3769839 -0.2
vt 0.3949822 0.3
vt 0.3949822 -0.2
vt 0.4056855 0.3
vt 0.4056855 -0.2
vt 0.4213987 0.3
vt 0.4213987 -0.2
vt 0.4299476 0.3
vt 0.4299476 -0.2
vt 0.4369747 0.3
vt 0.4369747 -0.2
vt 0.4427694 0.3
vt 0.4427694 -0.2
vt 0.4490547 0.3
vt 0.4490547 -0.2
vt 0.4584827 0.3
vt 0.4584827 -0.2
vt 0.4679106 0.3
vt 0.4679106 -0.2
vt 0.4749377 0.3
vt 0.4749377 -0.2
vt 0.4831327 0.3
vt 0.4831327 -0.2
vt 0.4901598 0.3
vt 0.4901598 -0.2
vt 0.4977283 0.3
vt 0.4977283 -0.2
vt 0.5103771 0.3
vt 0.5103771 -0.2
vt 0.5189261 0.3
vt 0.5189261 -0.2
vt 0.527475 0.3
vt 0.527475 -0.2
vt 0.5402017 0.3
vt 0.5402017 -0.2
vt 0.5557252 0.3
vt 0.5557252 -0.2
vt 0.5673146 0.3
vt 0.5673146 -0.2
vt 0.5758635 0.3
vt 0.5758635 -0.2
vt 0.5888209 0.3
vt 0.5888209 -0.2
vt 0.605686 0.3
vt 0.605686 -0.2
vt 0.6221361 0.3
vt 0.6221361 -0.2
vt 0.6360492 0.3
vt 0.6360492 -0.2
vt 0.6470259 0.3
vt 0.6470259 -0.2
vt 0.6580027 0.3
vt 0.6580027 -0.2
vt 0.6886978 0.3
vt 0.6886978 -0.2
vt 0.7056214 0.3
vt 0.7056214 -0.2
vt 0.7126486 0.3
vt 0.7126486 -0.2
vt 0.7168648 0.3
vt 0.7168648 -0.2
vt 0.7248151 0.3
vt 0.7248151 -0.2
vt 0.7298824 0.3
vt 0.7298824 -0.2
vt 0.7370488 0.3
vt 0.7370488 -0.2
vt 0.8037142 0.3
vt 0.8037142 -0.2

usemtl Cardboard
usemap Cardboard
f 45/45/45 44/44/44 43/43/43
f 45/45/45 43/43/43 47/47/47
f 47/47/47 43/43/43 49/49/49
f 47/47/47 49/49/49 48/48/48
f 45/45/45 47/47/47 46/46/46
f 42/42/42 41/41/41 43/43/43
f 43/43/43 41/41/41 40/40/40
f 43/43/43 40/40/40 39/39/39
f 24/24/24 23/23/23 26/26/26
f 26/26/26 23/23/23 22/22/22
f 26/26/26 22/22/22 32/32/32
f 32/32/32 22/22/22 37/37/37
f 32/32/32 37/37/37 35/35/35
f 35/35/35 37/37/37 36/36/36
f 34/34/34 33/33/33 35/35/35
f 35/35/35 33/33/33 32/32/32
f 28/28/28 27/27/27 26/26/26
f 28/28/28 26/26/26 30/30/30
f 30/30/30 26/26/26 32/32/32
f 30/30/30 32/32/32 31/31/31
f 28/28/28 30/30/30 29/29/29
f 24/24/24 26/26/26 25/25/25
f 21/21/21 20/20/20 22/22/22
f 22/22/22 20/20/20 12/12/12
f 22/22/22 12/12/12 49/49/49
f 49/49/49 12/12/12 5/5/5
f 49/49/49 5/5/5 1/1/1
f 1/1/1 5/5/5 3/3/3
f 1/1/1 3/3/3 2/2/2
f 19/19/19 18/18/18 20/20/20
f 20/20/20 18/18/18 16/16/16
f 20/20/20 16/16/16 12/12/12
f 12/12/12 16/16/16 14/14/14
f 12/12/12 14/14/14 13/13/13
f 16/16/16 18/18/18 17/17/17
f 14/14/14 16/16/16 15/15/15
f 5/5/5 12/12/12 9/9/9
f 9/9/9 12/12/12 11/11/11
f 9/9/9 11/11/11 10/10/10
f 6/6/6 5/5/5 7/7/7
f 7/7/7 5/5/5 9/9/9
f 7/7/7 9/9/9 8/8/8
f 3/3/3 5/5/5 4/4/4
f 43/43/43 39/39/39 49/49/49
f 49/49/49 39/39/39 38/38/38
f 49/49/49 38/38/38 22/22/22
f 22/22/22 38/38/38 37/37/37

usemtl Cardboard
usemap Cardboard
f 50/50/50 51/51/51 52/52/52
f 53/53/53 52/52/52 51/51/51
f 52/52/52 53/53/53 54/54/54
f 55/55/55 54/54/54 53/53/53
f 54/54/54 55/55/55 56/56/56
f 57/57/57 56/56/56 55/55/55
f 56/56/56 57/57/57 58/58/58
f 59/59/59 58/58/58 57/57/57
f 58/58/58 59/59/59 60/60/60
f 61/61/61 60/60/60 59/59/59
f 60/60/60 61/61/61 62/62/62
f 63/63/63 62/62/62 61/61/61
f 62/62/62 63/63/63 64/64/64
f 65/65/65 64/64/64 63/63/63
f 64/64/64 65/65/65 66/66/66
f 67/67/67 66/66/66 65/65/65
f 66/66/66 67/67/67 68/68/68
f 69/69/69 68/68/68 67/67/67
f 68/68/68 69/69/69 70/70/70
f 71/71/71 70/70/70 69/69/69
f 70/70/70 71/71/71 72/72/72
f 73/73/73 72/72/72 71/71/71
f 72/72/72 73/73/73 74/74/74
f 75/75/75 74/74/74 73/73/73
f 74/74/74 75/75/75 76/76/76
f 77/77/77 76/76/76 75/75/75
f 76/76/76 77/77/77 78/78/78
f 79/79/79 78/78/78 77/77/77
f 78/78/78 79/79/79 80/80/80
f 81/81/81 80/80/80 79/79/79
f 80/80/80 81/81/81 82/82/82
f 83/83/83 82/82/82 81/81/81
f 82/82/82 83/83/83 84/84/84
f 85/85/85 84/84/84 83/83/83
f 84/84/84 85/85/85 86/86/86
f 87/87/87 86/86/86 85/85/85
f 86/86/86 87/87/87 88/88/88
f 89/89/89 88/88/88 87/87/87
f 88/88/88 89/89/89 90/90/90
f 91/91/91 90/90/90 89/89/89
f 90/90/90 91/91/91 92/92/92
f 93/93/93 92/92/92 91/91/91
f 92/92/92 93/93/93 94/94/94
f 95/95/95 94/94/94 93/93/93
f 94/94/94 95/95/95 96/96/96
f 97/97/97 96/96/96 95/95/95
f 96/96/96 97/97/97 98/98/98
f 99/99/99 98/98/98 97/97/97
f 98/98/98 99/99/99 100/100/100
f 101/101/101 100/100/100 99/99/99
f 100/100/100 101/101/101 102/102/102
f 103/103/103 102/102/102 101/101/101
f 102/102/102 103/103/103 104/104/104
f 105/105/105 104/104/104 103/103/103
f 104/104/104 105/105/105 106/106/106
f 107/107/107 106/106/106 105/105/105
f 106/106/106 107/107/107 108/108/108
f 109/109/109 108/108/108 107/107/107
f 108/108/108 109/109/109 110/110/110
f 111/111/111 110/110/110 109/109/109
f 110/110/110 111/111/111 112/112/112
f 113/113/113 112/112/112 111/111/111
f 112/112/112 113/113/113 114/114/114
f 115/115/115 114/114/114 113/113/113
f 114/114/114 115/115/115 116/116/116
f 117/117/117 116/116/116 115/115/115
f 116/116/116 117/117/117 118/118/118
f 119/119/119 118/118/118 117/117/117
f 118/118/118 119/119/119 120/120/120
f 121/121/121 120/120/120 119/119/119
f 120/120/120 121/121/121 122/122/122
f 123/123/123 122/122/122 121/121/121
f 122/122/122 123/123/123 124/124/124
f 125/125/125 124/124/124 123/123/123
f 124/124/124 125/125/125 126/126/126
f 127/127/127 126/126/126 125/125/125
f 126/126/126 127/127/127 128/128/128
f 129/129/129 128/128/128 127/127/127
f 128/128/128 129/129/129 130/130/130
f 131/131/131 130/130/130 129/129/129
f 130/130/130 131/131/131 132/132/132
f 133/133/133 132/132/132 131/131/131
f 132/132/132 133/133/133 134/134/134
f 135/135/135 134/134/134 133/133/133
f 134/134/134 135/135/135 136/136/136
f 137/137/137 136/136/136 135/135/135
f 136/136/136 137/137/137 138/138/138
f 139/139/139 138/138/138 137/137/137
f 138/138/138 139/139/139 140/140/140
f 141/141/141 140/140/140 139/139/139
f 140/140/140 141/141/141 142/142/142
f 143/143/143 142/142/142 141/141/141
f 142/142/142 143/143/143 144/144/144
f 145/145/145 144/144/144 143/143/143
f 144/144/144 145/145/145 146/146/146
f 147/147/147 146/146/146 145/145/145
f 146/146/146 147/147/147 148/148/148
f 149/149/149 148/148/148 147/147/147
f 50/50/50 50/50/50 50/50/50
f 50/50/50 50/50/50 50/50/50
