g Drawn Mesh
v 2.740587 -4.684961 0
v 2.571935 -4.249278 0
v 2.754641 -3.743324 0
v 2.600044 -3.335749 0
v 2.628153 -2.773577 0
v 2.276795 -2.239514 0
v 2.080035 -2.436274 0
v 2.459501 -2.91412 0
v 2.38923 -3.349803 0
v 2.543827 -3.771432 0
v 1.99571 -4.769287 0
v 2.740587 -4.684961 5
v 2.740587 -4.684961 0
v 2.571935 -4.249278 5
v 2.571935 -4.249278 0
v 2.754641 -3.743324 5
v 2.754641 -3.743324 0
v 2.600044 -3.335749 5
v 2.600044 -3.335749 0
v 2.628153 -2.773577 5
v 2.628153 -2.773577 0
v 2.276795 -2.239514 5
v 2.276795 -2.239514 0
v 2.080035 -2.436274 5
v 2.080035 -2.436274 0
v 2.459501 -2.91412 5
v 2.459501 -2.91412 0
v 2.38923 -3.349803 5
v 2.38923 -3.349803 0
v 2.543827 -3.771432 5
v 2.543827 -3.771432 0
v 1.99571 -4.769287 5
v 1.99571 -4.769287 0
v 2.740587 -4.684961 5
v 2.740587 -4.684961 0

vn 0 0 -1
vn 0 0 -1
vn 0 0 -1
vn 0 0 -1
vn 0 0 -1
vn 0 0 -1
vn 0 0 -0.9999999
vn 0 0 -1
vn 0 0 -1
vn 0 0 -1
vn 0 0 -0.9999999
vn 0.932568 0.3609945 0
vn 0.932568 0.3609945 0
vn 0.9937595 0.1115445 0
vn 0.9908886 -0.134684 0
vn 0.9891508 -0.1469037 0
vn 0.9954478 0.0953089 0
vn 0.979804 0.19996 0
vn 0.9979442 0.06408816 0
vn 0.9845305 0.1752129 0
vn 0.9240168 0.3823517 0
vn 0.6957951 0.7182404 0
vn 0.1854079 0.9826617 0
vn -0.99987 0.01612695 0
vn -0.8987684 -0.4384239 0
vn -0.8962304 -0.4435889 0
vn -0.9846801 -0.1743705 0
vn -0.999941 -0.01086893 0
vn -0.9829942 -0.1836363 0
vn -0.9916846 0.1286919 0
vn -0.9318011 0.3629692 0
vn -0.9835209 0.1807945 0
vn -0.6608803 -0.7504913 0
vn 0.1124891 -0.9936529 0
vn 0.1124891 -0.9936529 0

vt 0.2740587 -0.4684961
vt 0.2571935 -0.4249278
vt 0.2754641 -0.3743324
vt 0.2600044 -0.333575
vt 0.2628153 -0.2773577
vt 0.2276795 -0.2239514
vt 0.2080035 -0.2436274
vt 0.2459501 -0.291412
vt 0.238923 -0.3349803
vt 0.2543827 -0.3771432
vt 0.199571 -0.4769287
vt 0 0.5
vt 0 0
vt 0.04671861 0.5
vt 0.04671861 0
vt 0.1005118 0.5
vt 0.1005118 0
vt 0.1441028 0.5
vt 0.1441028 0
vt 0.2003902 0.5
vt 0.2003902 0
vt 0.264318 0.5
vt 0.264318 0
vt 0.292144 0.5
vt 0.292144 0
vt 0.353163 0.5
vt 0.353163 0
vt 0.3972944 0.5
vt 0.3972944 0
vt 0.4422022 0.5
vt 0.4422022 0
vt 0.5560506 0.5
vt 0.5560506 0
vt 0.6310141 0.5
vt 0.6310141 0

usemtl Cardboard
usemap Cardboard
f 6/6/6 5/5/5 4/4/4
f 6/6/6 4/4/4 8/8/8
f 8/8/8 4/4/4 10/10/10
f 8/8/8 10/10/10 9/9/9
f 6/6/6 8/8/8 7/7/7
f 11/11/11 10/10/10 2/2/2
f 2/2/2 10/10/10 4/4/4
f 2/2/2 4/4/4 3/3/3
f 11/11/11 2/2/2 1/1/1

usemtl Cardboard Snow
usemap Cardboard Snow
f 12/12/12 13/13/13 14/14/14
f 15/15/15 14/14/14 13/13/13
f 14/14/14 15/15/15 16/16/16
f 17/17/17 16/16/16 15/15/15
f 16/16/16 17/17/17 18/18/18
f 19/19/19 18/18/18 17/17/17
f 18/18/18 19/19/19 20/20/20
f 21/21/21 20/20/20 19/19/19
f 20/20/20 21/21/21 22/22/22
f 23/23/23 22/22/22 21/21/21
f 22/22/22 23/23/23 24/24/24
f 25/25/25 24/24/24 23/23/23
f 24/24/24 25/25/25 26/26/26
f 27/27/27 26/26/26 25/25/25
f 26/26/26 27/27/27 28/28/28
f 29/29/29 28/28/28 27/27/27
f 28/28/28 29/29/29 30/30/30
f 31/31/31 30/30/30 29/29/29
f 30/30/30 31/31/31 32/32/32
f 33/33/33 32/32/32 31/31/31
f 32/32/32 33/33/33 34/34/34
f 35/35/35 34/34/34 33/33/33
f 12/12/12 12/12/12 12/12/12
f 12/12/12 12/12/12 12/12/12
