g Drawn Mesh
v 6.5493 5.673052 -2
v 6.507137 5.630889 -2
v 6.479029 5.574672 -2
v 6.535246 5.434129 -2
v 6.535246 5.420074 -2
v 6.605517 5.335749 -2
v 7.139581 5.026555 -2
v 7.533101 4.900066 -2
v 7.687698 4.900066 -2
v 7.92662 4.956283 -2
v 8.123381 5.040609 -2
v 8.249869 5.138989 -2
v 8.502847 5.223315 -2
v 8.783933 5.279531 -2
v 9.079073 5.321694 -2
v 9.261779 5.321694 -2
v 9.655298 5.321694 -2
v 10.00666 5.321694 -2
v 10.32991 5.335749 -2
v 10.55477 5.406021 -2
v 10.77964 5.504401 -2
v 10.86397 5.602781 -2
v 10.90613 5.70116 -2
v 10.99046 5.883866 -2
v 10.99046 5.911975 -2
v 11.01857 6.010355 -2
v 11.00451 6.080626 -2
v 10.94829 6.164952 -2
v 10.82181 6.221169 -2
v 10.62504 6.291441 -2
v 10.54072 6.31955 -2
v 10.42828 6.31955 -2
v 10.24558 6.31955 -2
v 10.11909 6.305495 -2
v 9.950439 6.305495 -2
v 9.838005 6.291441 -2
v 9.711516 6.291441 -2
v 9.556919 6.291441 -2
v 9.416376 6.333603 -2
v 9.261779 6.41793 -2
v 9.177453 6.460093 -2
v 9.008801 6.502255 -2
v 8.713661 6.572526 -2
v 8.418522 6.586581 -2
v 8.235815 6.586581 -2
v 8.123381 6.586581 -2
v 7.898512 6.586581 -2
v 7.786078 6.572526 -2
v 7.701752 6.544418 -2
v 7.659589 6.502255 -2
v 7.617427 6.488201 -2
v 7.603372 6.460093 -2
v 7.603372 6.41793 -2
v 7.603372 6.375766 -2
v 7.631481 6.333603 -2
v 7.645535 6.305495 -2
v 7.659589 6.263332 -2
v 7.659589 6.193061 -2
v 7.645535 6.164952 -2
v 7.603372 6.108735 -2
v 7.575264 6.080626 -2
v 7.533101 6.052518 -2
v 7.490938 6.038464 -2
v 7.420667 6.024409 -2
v 7.350395 5.996301 -2
v 7.266069 5.968192 -2
v 7.195797 5.940084 -2
v 7.139581 5.940084 -2
v 7.111472 5.926029 -2
v 7.083363 5.911975 -2
v 7.055254 5.897921 -2
v 6.5493 5.673052 3
v 6.5493 5.673052 -2
v 6.507137 5.630889 3
v 6.507137 5.630889 -2
v 6.479029 5.574672 3
v 6.479029 5.574672 -2
v 6.535246 5.434129 3
v 6.535246 5.434129 -2
v 6.535246 5.420074 3
v 6.535246 5.420074 -2
v 6.605517 5.335749 3
v 6.605517 5.335749 -2
v 7.139581 5.026555 3
v 7.139581 5.026555 -2
v 7.533101 4.900066 3
v 7.533101 4.900066 -2
v 7.687698 4.900066 3
v 7.687698 4.900066 -2
v 7.92662 4.956283 3
v 7.92662 4.956283 -2
v 8.123381 5.040609 3
v 8.123381 5.040609 -2
v 8.249869 5.138989 3
v 8.249869 5.138989 -2
v 8.502847 5.223315 3
v 8.502847 5.223315 -2
v 8.783933 5.279531 3
v 8.783933 5.279531 -2
v 9.079073 5.321694 3
v 9.079073 5.321694 -2
v 9.261779 5.321694 3
v 9.261779 5.321694 -2
v 9.655298 5.321694 3
v 9.655298 5.321694 -2
v 10.00666 5.321694 3
v 10.00666 5.321694 -2
v 10.32991 5.335749 3
v 10.32991 5.335749 -2
v 10.55477 5.406021 3
v 10.55477 5.406021 -2
v 10.77964 5.504401 3
v 10.77964 5.504401 -2
v 10.86397 5.602781 3
v 10.86397 5.602781 -2
v 10.90613 5.70116 3
v 10.90613 5.70116 -2
v 10.99046 5.883866 3
v 10.99046 5.883866 -2
v 10.99046 5.911975 3
v 10.99046 5.911975 -2
v 11.01857 6.010355 3
v 11.01857 6.010355 -2
v 11.00451 6.080626 3
v 11.00451 6.080626 -2
v 10.94829 6.164952 3
v 10.94829 6.164952 -2
v 10.82181 6.221169 3
v 10.82181 6.221169 -2
v 10.62504 6.291441 3
v 10.62504 6.291441 -2
v 10.54072 6.31955 3
v 10.54072 6.31955 -2
v 10.42828 6.31955 3
v 10.42828 6.31955 -2
v 10.24558 6.31955 3
v 10.24558 6.31955 -2
v 10.11909 6.305495 3
v 10.11909 6.305495 -2
v 9.950439 6.305495 3
v 9.950439 6.305495 -2
v 9.838005 6.291441 3
v 9.838005 6.291441 -2
v 9.711516 6.291441 3
v 9.711516 6.291441 -2
v 9.556919 6.291441 3
v 9.556919 6.291441 -2
v 9.416376 6.333603 3
v 9.416376 6.333603 -2
v 9.261779 6.41793 3
v 9.261779 6.41793 -2
v 9.177453 6.460093 3
v 9.177453 6.460093 -2
v 9.008801 6.502255 3
v 9.008801 6.502255 -2
v 8.713661 6.572526 3
v 8.713661 6.572526 -2
v 8.418522 6.586581 3
v 8.418522 6.586581 -2
v 8.235815 6.586581 3
v 8.235815 6.586581 -2
v 8.123381 6.586581 3
v 8.123381 6.586581 -2
v 7.898512 6.586581 3
v 7.898512 6.586581 -2
v 7.786078 6.572526 3
v 7.786078 6.572526 -2
v 7.701752 6.544418 3
v 7.701752 6.544418 -2
v 7.659589 6.502255 3
v 7.659589 6.502255 -2
v 7.617427 6.488201 3
v 7.617427 6.488201 -2
v 7.603372 6.460093 3
v 7.603372 6.460093 -2
v 7.603372 6.41793 3
v 7.603372 6.41793 -2
v 7.603372 6.375766 3
v 7.603372 6.375766 -2
v 7.631481 6.333603 3
v 7.631481 6.333603 -2
v 7.645535 6.305495 3
v 7.645535 6.305495 -2
v 7.659589 6.263332 3
v 7.659589 6.263332 -2
v 7.659589 6.193061 3
v 7.659589 6.193061 -2
v 7.645535 6.164952 3
v 7.645535 6.164952 -2
v 7.603372 6.108735 3
v 7.603372 6.108735 -2
v 7.575264 6.080626 3
v 7.575264 6.080626 -2
v 7.533101 6.052518 3
v 7.533101 6.052518 -2
v 7.490938 6.038464 3
v 7.490938 6.038464 -2
v 7.420667 6.024409 3
v 7.420667 6.024409 -2
v 7.350395 5.996301 3
v 7.350395 5.996301 -2
v 7.266069 5.968192 3
v 7.266069 5.968192 -2
v 7.195797 5.940084 3
v 7.195797 5.940084 -2
v 7.139581 5.940084 3
v 7.139581 5.940084 -2
v 7.111472 5.926029 3
v 7.111472 5.926029 -2
v 7.083363 5.911975 3
v 7.083363 5.911975 -2
v 7.055254 5.897921 3
v 7.055254 5.897921 -2
v 6.5493 5.673052 3
v 6.5493 5.673052 -2

vn 0 0 -0.9999999
vn 0 0 -0.9999999
vn 0 0 -1
vn 0 0 -1
vn 0 0 -1
vn 0 0 -1
vn 0 0 -1
vn 0 0 -1
vn 0 0 -1
vn 0 0 -1
vn 0 0 -1
vn 0 0 -1
vn 0 0 -1
vn 0 0 -1
vn 0 0 -1
vn 0 0 -1
vn 0 0 -1
vn 0 0 -1
vn 0 0 -1
vn 0 0 -0.9999999
vn 0 0 -1
vn 0 0 -1
vn 0 0 -1
vn 0 0 -1
vn 0 0 -1
vn 0 0 -0.9999999
vn 0 0 -1
vn 0 0 -1
vn 0 0 -1
vn 0 0 -1
vn 0 0 -1
vn 0 0 -1
vn 0 0 -0.9999999
vn 0 0 -1
vn 0 0 -1
vn 0 0 -1
vn 0 0 -0.9999999
vn 0 0 -1
vn 0 0 -1
vn 0 0 -1
vn 0 0 -1
vn 0 0 -0.9999999
vn 0 0 -1
vn 0 0 -0.9999999
vn 0 0 -1
vn 0 0 -0.9999999
vn 0 0 -1
vn 0 0 -1
vn 0 0 -1
vn 0 0 -1
vn 0 0 -1
vn 0 0 -1
vn 0 0 -1
vn 0 0 -1
vn 0 0 -1
vn 0 0 -1
vn 0 0 -1
vn 0 0 -1
vn 0 0 -1
vn 0 0 -0.9999999
vn 0 0 -1
vn 0 0 -1
vn 0 0 -1
vn 0 0 -1
vn 0 0 -1
vn 0 0 -0.9999999
vn 0 0 -1
vn 0 0 -1
vn 0 0 -1
vn 0 0 -1
vn 0 0 -1
vn -0.7071068 0.7071068 0
vn -0.7071068 0.7071068 0
vn -0.7808688 0.624695 0
vn -0.8436614 0.5368755 0
vn -1 0 0
vn -0.9701425 -0.2425356 0
vn -0.9344877 -0.3559953 0
vn -0.9486833 -0.3162277 0
vn -0.8479972 -0.5300005 0
vn -0.7926224 -0.6097128 0
vn -0.5780166 -0.816025 0
vn -0.5252689 -0.8509362 0
vn -0.4540541 -0.8909741 0
vn -0.3915552 -0.9201546 0
vn -0.2594565 -0.9657548 0
vn -0.177153 -0.9841833 0
vn 0.102029 -0.9947814 0
vn 0.1750339 -0.9845625 0
vn 0.2800007 -0.9599997 0
vn 0.3350101 -0.9422145 0
vn 0.4568047 -0.889567 0
vn 0.529999 -0.8479983 0
vn 0.4856429 -0.8741572 0
vn 0.388972 -0.9212496 0
vn 0.2747206 -0.9615241 0
vn 0.2346395 -0.9720825 0
vn 0.1774645 -0.9841272 0
vn 0.1592319 -0.9872412 0
vn 0.1084475 -0.9941022 0
vn 0.06370015 -0.9979691 0
vn 0 -1 0
vn 0 -1 0
vn 0 -1 0
vn 0 -0.9999999 0
vn 0.0136978 -0.9999061 0
vn 0.02815874 -0.9996035 0
vn 0.1121914 -0.9936867 0
vn 0.196117 -0.9805805 0
vn 0.333848 -0.9426269 0
vn 0.3680489 -0.9298065 0
vn 0.4836861 -0.8752415 0
vn 0.6 -0.8 0
vn 0.813733 -0.5812388 0
vn 0.8682424 -0.4961401 0
vn 0.9138111 -0.4061393 0
vn 0.9103663 -0.4138033 0
vn 0.919145 -0.3939193 0
vn 0.9429903 -0.3328201 0
vn 0.9838699 -0.1788854 0
vn 0.9701425 -0.2425356 0
vn 0.987763 -0.1559626 0
vn 1 0 0
vn 0.9363291 0.3511234 0
vn 0.8837879 0.4678877 0
vn 0.6853647 0.7282 0
vn 0.5368755 0.8436614 0
vn 0.376377 0.9264666 0
vn 0.3538921 0.9352863 0
vn 0.3328201 0.9429903 0
vn 0.3271106 0.944986 0
vn 0.1961161 0.9805807 0
vn 0.09053575 0.9958932 0
vn 0 1 0
vn 0 1 0
vn -0.02855977 0.9995921 0
vn -0.06438228 0.9979253 0
vn -0.06651916 0.9977852 0
vn -0.03028925 0.9995411 0
vn -0.03123488 0.9995121 0
vn -0.07124722 0.9974587 0
vn -0.07974523 0.9968153 0
vn -0.03843312 0.9992612 0
vn 0 1 0
vn 0 1 0
vn 0.09333966 0.9956343 0
vn 0.1900198 0.9817803 0
vn 0.3609932 0.9325684 0
vn 0.4244347 0.9054586 0
vn 0.4722231 0.8814791 0
vn 0.462567 0.8865843 0
vn 0.3511235 0.9363292 0
vn 0.2873479 0.9578263 0
vn 0.2374524 0.9713992 0
vn 0.2340527 0.9722239 0
vn 0.1720002 0.9850969 0
vn 0.1104312 0.9938838 0
vn 0.03633967 0.9993396 0
vn 0.02127175 0.9997737 0
vn 0 1 0
vn 0 1 0
vn 0 0.9999999 0
vn 0 1 0
vn -0.02499223 0.9996876 0
vn -0.06237835 0.9980526 0
vn -0.178884 0.9838701 0
vn -0.2425325 0.9701433 0
vn -0.4228813 0.9061852 0
vn -0.5546964 0.8320528 0
vn -0.6139406 0.7893522 0
vn -0.4856471 0.8741549 0
vn -0.4961444 0.8682401 0
vn -0.7071068 0.7071068 0
vn -0.9615216 0.2747298 0
vn -0.9922774 0.1240389 0
vn -1 0 0
vn -1 0 0
vn -0.9761875 -0.2169289 0
vn -0.9138121 -0.4061372 0
vn -0.8479956 -0.5300031 0
vn -0.8682374 -0.4961489 0
vn -0.9191437 -0.3939225 0
vn -0.9363326 -0.3511143 0
vn -0.983872 -0.1788737 0
vn -0.9970549 -0.07669132 0
vn -0.9965462 0.08303988 0
vn -0.9761902 0.2169164 0
vn -0.8480031 0.5299911 0
vn -0.8192319 0.5734623 0
vn -0.7808675 0.6246967 0
vn -0.7525783 0.6585028 0
vn -0.650795 0.7592535 0
vn -0.6000016 0.7999988 0
vn -0.4856429 0.8741572 0
vn -0.4061385 0.9138116 0
vn -0.2631174 0.9647638 0
vn -0.2248595 0.9743911 0
vn -0.2576621 0.9662351 0
vn -0.3162265 0.9486837 0
vn -0.3511228 0.9363294 0
vn -0.3328207 0.9429901 0
vn -0.3328207 0.9429901 0
vn -0.3511228 0.9363294 0
vn -0.2747205 0.9615241 0
vn -0.1520576 0.9883717 0
vn -0.09950438 0.9950371 0
vn -0.2425366 0.9701423 0
vn -0.4472116 0.8944281 0
vn -0.4472095 0.8944292 0
vn -0.4472095 0.8944292 0
vn -0.4472116 0.8944281 0
vn -0.410365 0.9119214 0
vn -0.4072836 0.9133018 0
vn -0.4061388 0.9138114 0
vn -0.4061388 0.9138114 0

vt 0.6549301 0.5673052
vt 0.6507137 0.5630889
vt 0.6479029 0.5574672
vt 0.6535246 0.5434129
vt 0.6535246 0.5420074
vt 0.6605517 0.5335749
vt 0.7139581 0.5026554
vt 0.7533101 0.4900066
vt 0.7687699 0.4900066
vt 0.7926621 0.4956283
vt 0.8123381 0.5040609
vt 0.8249869 0.5138989
vt 0.8502847 0.5223315
vt 0.8783933 0.5279531
vt 0.9079073 0.5321695
vt 0.9261779 0.5321695
vt 0.9655299 0.5321695
vt 1.000666 0.5321695
vt 1.032991 0.5335749
vt 1.055477 0.5406021
vt 1.077964 0.5504401
vt 1.086397 0.5602781
vt 1.090613 0.570116
vt 1.099046 0.5883867
vt 1.099046 0.5911975
vt 1.101857 0.6010355
vt 1.100451 0.6080627
vt 1.094829 0.6164953
vt 1.082181 0.622117
vt 1.062505 0.6291441
vt 1.054072 0.631955
vt 1.042828 0.631955
vt 1.024558 0.631955
vt 1.011909 0.6305496
vt 0.9950439 0.6305496
vt 0.9838005 0.6291441
vt 0.9711516 0.6291441
vt 0.9556919 0.6291441
vt 0.9416376 0.6333603
vt 0.9261779 0.641793
vt 0.9177453 0.6460093
vt 0.9008802 0.6502256
vt 0.8713661 0.6572527
vt 0.8418522 0.6586581
vt 0.8235815 0.6586581
vt 0.8123381 0.6586581
vt 0.7898512 0.6586581
vt 0.7786078 0.6572527
vt 0.7701752 0.6544418
vt 0.7659589 0.6502256
vt 0.7617427 0.6488201
vt 0.7603372 0.6460093
vt 0.7603372 0.641793
vt 0.7603372 0.6375766
vt 0.7631481 0.6333603
vt 0.7645535 0.6305496
vt 0.7659589 0.6263332
vt 0.7659589 0.6193061
vt 0.7645535 0.6164953
vt 0.7603372 0.6108735
vt 0.7575264 0.6080627
vt 0.7533101 0.6052518
vt 0.7490938 0.6038464
vt 0.7420667 0.602441
vt 0.7350395 0.5996301
vt 0.726607 0.5968192
vt 0.7195798 0.5940084
vt 0.7139581 0.5940084
vt 0.7111472 0.5926029
vt 0.7083363 0.5911975
vt 0.7055255 0.5897921
vt 0 0.3
vt 0 -0.2
vt 0.005962734 0.3
vt 0.005962734 -0.2
vt 0.01224801 0.3
vt 0.01224801 -0.2
vt 0.02738495 0.3
vt 0.02738495 -0.2
vt 0.02879038 0.3
vt 0.02879038 -0.2
vt 0.0397671 0.3
vt 0.0397671 -0.2
vt 0.1014781 0.3
vt 0.1014781 -0.2
vt 0.142813 0.3
vt 0.142813 -0.2
vt 0.1582728 0.3
vt 0.1582728 -0.2
vt 0.1828174 0.3
vt 0.1828174 -0.2
vt 0.2042243 0.3
vt 0.2042243 -0.2
vt 0.2202487 0.3
vt 0.2202487 -0.2
vt 0.2469149 0.3
vt 0.2469149 -0.2
vt 0.2755801 0.3
vt 0.2755801 -0.2
vt 0.3053938 0.3
vt 0.3053938 -0.2
vt 0.3236644 0.3
vt 0.3236644 -0.2
vt 0.3630163 0.3
vt 0.3630163 -0.2
vt 0.3981521 0.3
vt 0.3981521 -0.2
vt 0.4305076 0.3
vt 0.4305076 -0.2
vt 0.4540668 0.3
vt 0.4540668 -0.2
vt 0.4786115 0.3
vt 0.4786115 -0.2
vt 0.491569 0.3
vt 0.491569 -0.2
vt 0.5022723 0.3
vt 0.5022723 -0.2
vt 0.522395 0.3
vt 0.522395 -0.2
vt 0.5252059 0.3
vt 0.5252059 -0.2
vt 0.5354375 0.3
vt 0.5354375 -0.2
vt 0.5426039 0.3
vt 0.5426039 -0.2
vt 0.5527386 0.3
vt 0.5527386 -0.2
vt 0.5665805 0.3
vt 0.5665805 -0.2
vt 0.5874737 0.3
vt 0.5874737 -0.2
vt 0.5963624 0.3
vt 0.5963624 -0.2
vt 0.6076059 0.3
vt 0.6076059 -0.2
vt 0.6258764 0.3
vt 0.6258764 -0.2
vt 0.6386032 0.3
vt 0.6386032 -0.2
vt 0.6554682 0.3
vt 0.6554682 -0.2
vt 0.6667991 0.3
vt 0.6667991 -0.2
vt 0.679448 0.3
vt 0.679448 -0.2
vt 0.6949077 0.3
vt 0.6949077 -0.2
vt 0.7095808 0.3
vt 0.7095808 -0.2
vt 0.7271909 0.3
vt 0.7271909 -0.2
vt 0.7366188 0.3
vt 0.7366188 -0.2
vt 0.754003 0.3
vt 0.754003 -0.2
vt 0.784342 0.3
vt 0.784342 -0.2
vt 0.8138894 0.3
vt 0.8138894 -0.2
vt 0.8321601 0.3
vt 0.8321601 -0.2
vt 0.8434035 0.3
vt 0.8434035 -0.2
vt 0.8658903 0.3
vt 0.8658903 -0.2
vt 0.8772212 0.3
vt 0.8772212 -0.2
vt 0.8861099 0.3
vt 0.8861099 -0.2
vt 0.8920727 0.3
vt 0.8920727 -0.2
vt 0.896517 0.3
vt 0.896517 -0.2
vt 0.8996596 0.3
vt 0.8996596 -0.2
vt 0.9038759 0.3
vt 0.9038759 -0.2
vt 0.9080923 0.3
vt 0.9080923 -0.2
vt 0.9131597 0.3
vt 0.9131597 -0.2
vt 0.9163023 0.3
vt 0.9163023 -0.2
vt 0.9207466 0.3
vt 0.9207466 -0.2
vt 0.9277738 0.3
vt 0.9277738 -0.2
vt 0.9309163 0.3
vt 0.9309163 -0.2
vt 0.9379435 0.3
vt 0.9379435 -0.2
vt 0.9419186 0.3
vt 0.9419186 -0.2
vt 0.9469859 0.3
vt 0.9469859 -0.2
vt 0.9514303 0.3
vt 0.9514303 -0.2
vt 0.9585965 0.3
vt 0.9585965 -0.2
vt 0.9661651 0.3
vt 0.9661651 -0.2
vt 0.9750538 0.3
vt 0.9750538 -0.2
vt 0.9826223 0.3
vt 0.9826223 -0.2
vt 0.9882441 0.3
vt 0.9882441 -0.2
vt 0.9913867 0.3
vt 0.9913867 -0.2
vt 0.9945294 0.3
vt 0.9945294 -0.2
vt 0.997672 0.3
vt 0.997672 -0.2
vt 1.053039 0.3
vt 1.053039 -0.2

usemtl Cardboard
usemap Cardboard
f 70/70/70 69/69/69 71/71/71
f 71/71/71 69/69/69 67/67/67
f 71/71/71 67/67/67 8/8/8
f 8/8/8 67/67/67 63/63/63
f 8/8/8 63/63/63 62/62/62
f 67/67/67 69/69/69 68/68/68
f 64/64/64 63/63/63 65/65/65
f 65/65/65 63/63/63 67/67/67
f 65/65/65 67/67/67 66/66/66
f 39/39/39 38/38/38 46/46/46
f 46/46/46 38/38/38 56/56/56
f 46/46/46 56/56/56 53/53/53
f 53/53/53 56/56/56 55/55/55
f 53/53/53 55/55/55 54/54/54
f 46/46/46 53/53/53 50/50/50
f 50/50/50 53/53/53 52/52/52
f 50/50/50 52/52/52 51/51/51
f 47/47/47 46/46/46 48/48/48
f 48/48/48 46/46/46 50/50/50
f 48/48/48 50/50/50 49/49/49
f 39/39/39 46/46/46 43/43/43
f 43/43/43 46/46/46 45/45/45
f 43/43/43 45/45/45 44/44/44
f 40/40/40 39/39/39 41/41/41
f 41/41/41 39/39/39 43/43/43
f 41/41/41 43/43/43 42/42/42
f 30/30/30 29/29/29 31/31/31
f 31/31/31 29/29/29 27/27/27
f 31/31/31 27/27/27 34/34/34
f 34/34/34 27/27/27 36/36/36
f 34/34/34 36/36/36 35/35/35
f 33/33/33 32/32/32 34/34/34
f 34/34/34 32/32/32 31/31/31
f 27/27/27 29/29/29 28/28/28
f 26/26/26 25/25/25 27/27/27
f 27/27/27 25/25/25 23/23/23
f 27/27/27 23/23/23 19/19/19
f 19/19/19 23/23/23 21/21/21
f 19/19/19 21/21/21 20/20/20
f 23/23/23 25/25/25 24/24/24
f 21/21/21 23/23/23 22/22/22
f 18/18/18 17/17/17 19/19/19
f 19/19/19 17/17/17 16/16/16
f 19/19/19 16/16/16 15/15/15
f 11/11/11 10/10/10 12/12/12
f 12/12/12 10/10/10 8/8/8
f 12/12/12 8/8/8 27/27/27
f 27/27/27 8/8/8 58/58/58
f 27/27/27 58/58/58 57/57/57
f 8/8/8 10/10/10 9/9/9
f 7/7/7 6/6/6 8/8/8
f 8/8/8 6/6/6 4/4/4
f 8/8/8 4/4/4 71/71/71
f 71/71/71 4/4/4 2/2/2
f 71/71/71 2/2/2 1/1/1
f 4/4/4 6/6/6 5/5/5
f 2/2/2 4/4/4 3/3/3
f 61/61/61 60/60/60 8/8/8
f 8/8/8 60/60/60 59/59/59
f 8/8/8 59/59/59 58/58/58
f 15/15/15 14/14/14 27/27/27
f 27/27/27 14/14/14 13/13/13
f 27/27/27 13/13/13 12/12/12
f 61/61/61 8/8/8 62/62/62
f 37/37/37 36/36/36 27/27/27
f 37/37/37 27/27/27 38/38/38
f 38/38/38 27/27/27 57/57/57
f 38/38/38 57/57/57 56/56/56
f 15/15/15 27/27/27 19/19/19

usemtl Cardboard
usemap Cardboard
f 72/72/72 73/73/73 74/74/74
f 75/75/75 74/74/74 73/73/73
f 74/74/74 75/75/75 76/76/76
f 77/77/77 76/76/76 75/75/75
f 76/76/76 77/77/77 78/78/78
f 79/79/79 78/78/78 77/77/77
f 78/78/78 79/79/79 80/80/80
f 81/81/81 80/80/80 79/79/79
f 80/80/80 81/81/81 82/82/82
f 83/83/83 82/82/82 81/81/81
f 82/82/82 83/83/83 84/84/84
f 85/85/85 84/84/84 83/83/83
f 84/84/84 85/85/85 86/86/86
f 87/87/87 86/86/86 85/85/85
f 86/86/86 87/87/87 88/88/88
f 89/89/89 88/88/88 87/87/87
f 88/88/88 89/89/89 90/90/90
f 91/91/91 90/90/90 89/89/89
f 90/90/90 91/91/91 92/92/92
f 93/93/93 92/92/92 91/91/91
f 92/92/92 93/93/93 94/94/94
f 95/95/95 94/94/94 93/93/93
f 94/94/94 95/95/95 96/96/96
f 97/97/97 96/96/96 95/95/95
f 96/96/96 97/97/97 98/98/98
f 99/99/99 98/98/98 97/97/97
f 98/98/98 99/99/99 100/100/100
f 101/101/101 100/100/100 99/99/99
f 100/100/100 101/101/101 102/102/102
f 103/103/103 102/102/102 101/101/101
f 102/102/102 103/103/103 104/104/104
f 105/105/105 104/104/104 103/103/103
f 104/104/104 105/105/105 106/106/106
f 107/107/107 106/106/106 105/105/105
f 106/106/106 107/107/107 108/108/108
f 109/109/109 108/108/108 107/107/107
f 108/108/108 109/109/109 110/110/110
f 111/111/111 110/110/110 109/109/109
f 110/110/110 111/111/111 112/112/112
f 113/113/113 112/112/112 111/111/111
f 112/112/112 113/113/113 114/114/114
f 115/115/115 114/114/114 113/113/113
f 114/114/114 115/115/115 116/116/116
f 117/117/117 116/116/116 115/115/115
f 116/116/116 117/117/117 118/118/118
f 119/119/119 118/118/118 117/117/117
f 118/118/118 119/119/119 120/120/120
f 121/121/121 120/120/120 119/119/119
f 120/120/120 121/121/121 122/122/122
f 123/123/123 122/122/122 121/121/121
f 122/122/122 123/123/123 124/124/124
f 125/125/125 124/124/124 123/123/123
f 124/124/124 125/125/125 126/126/126
f 127/127/127 126/126/126 125/125/125
f 126/126/126 127/127/127 128/128/128
f 129/129/129 128/128/128 127/127/127
f 128/128/128 129/129/129 130/130/130
f 131/131/131 130/130/130 129/129/129
f 130/130/130 131/131/131 132/132/132
f 133/133/133 132/132/132 131/131/131
f 132/132/132 133/133/133 134/134/134
f 135/135/135 134/134/134 133/133/133
f 134/134/134 135/135/135 136/136/136
f 137/137/137 136/136/136 135/135/135
f 136/136/136 137/137/137 138/138/138
f 139/139/139 138/138/138 137/137/137
f 138/138/138 139/139/139 140/140/140
f 141/141/141 140/140/140 139/139/139
f 140/140/140 141/141/141 142/142/142
f 143/143/143 142/142/142 141/141/141
f 142/142/142 143/143/143 144/144/144
f 145/145/145 144/144/144 143/143/143
f 144/144/144 145/145/145 146/146/146
f 147/147/147 146/146/146 145/145/145
f 146/146/146 147/147/147 148/148/148
f 149/149/149 148/148/148 147/147/147
f 148/148/148 149/149/149 150/150/150
f 151/151/151 150/150/150 149/149/149
f 150/150/150 151/151/151 152/152/152
f 153/153/153 152/152/152 151/151/151
f 152/152/152 153/153/153 154/154/154
f 155/155/155 154/154/154 153/153/153
f 154/154/154 155/155/155 156/156/156
f 157/157/157 156/156/156 155/155/155
f 156/156/156 157/157/157 158/158/158
f 159/159/159 158/158/158 157/157/157
f 158/158/158 159/159/159 160/160/160
f 161/161/161 160/160/160 159/159/159
f 160/160/160 161/161/161 162/162/162
f 163/163/163 162/162/162 161/161/161
f 162/162/162 163/163/163 164/164/164
f 165/165/165 164/164/164 163/163/163
f 164/164/164 165/165/165 166/166/166
f 167/167/167 166/166/166 165/165/165
f 166/166/166 167/167/167 168/168/168
f 169/169/169 168/168/168 167/167/167
f 168/168/168 169/169/169 170/170/170
f 171/171/171 170/170/170 169/169/169
f 170/170/170 171/171/171 172/172/172
f 173/173/173 172/172/172 171/171/171
f 172/172/172 173/173/173 174/174/174
f 175/175/175 174/174/174 173/173/173
f 174/174/174 175/175/175 176/176/176
f 177/177/177 176/176/176 175/175/175
f 176/176/176 177/177/177 178/178/178
f 179/179/179 178/178/178 177/177/177
f 178/178/178 179/179/179 180/180/180
f 181/181/181 180/180/180 179/179/179
f 180/180/180 181/181/181 182/182/182
f 183/183/183 182/182/182 181/181/181
f 182/182/182 183/183/183 184/184/184
f 185/185/185 184/184/184 183/183/183
f 184/184/184 185/185/185 186/186/186
f 187/187/187 186/186/186 185/185/185
f 186/186/186 187/187/187 188/188/188
f 189/189/189 188/188/188 187/187/187
f 188/188/188 189/189/189 190/190/190
f 191/191/191 190/190/190 189/189/189
f 190/190/190 191/191/191 192/192/192
f 193/193/193 192/192/192 191/191/191
f 192/192/192 193/193/193 194/194/194
f 195/195/195 194/194/194 193/193/193
f 194/194/194 195/195/195 196/196/196
f 197/197/197 196/196/196 195/195/195
f 196/196/196 197/197/197 198/198/198
f 199/199/199 198/198/198 197/197/197
f 198/198/198 199/199/199 200/200/200
f 201/201/201 200/200/200 199/199/199
f 200/200/200 201/201/201 202/202/202
f 203/203/203 202/202/202 201/201/201
f 202/202/202 203/203/203 204/204/204
f 205/205/205 204/204/204 203/203/203
f 204/204/204 205/205/205 206/206/206
f 207/207/207 206/206/206 205/205/205
f 206/206/206 207/207/207 208/208/208
f 209/209/209 208/208/208 207/207/207
f 208/208/208 209/209/209 210/210/210
f 211/211/211 210/210/210 209/209/209
f 210/210/210 211/211/211 212/212/212
f 213/213/213 212/212/212 211/211/211
f 212/212/212 213/213/213 214/214/214
f 215/215/215 214/214/214 213/213/213
f 72/72/72 72/72/72 72/72/72
f 72/72/72 72/72/72 72/72/72
